HIERARCHY
ROOT Hips
{
	OFFSET 0.000000 0.000000 0.000000
	CHANNELS 6 Xposition Yposition Zposition Zrotation Yrotation Xrotation 
	JOINT LowerBack
	{
		OFFSET 0.000000 0.000000 0.000000
		CHANNELS 3 Zrotation Yrotation Xrotation
		JOINT Spine
		{
			OFFSET 0.028270 2.035590 -0.193380
			CHANNELS 3 Zrotation Yrotation Xrotation
			JOINT Spine1
			{
				OFFSET 0.056720 2.048850 -0.042750
				CHANNELS 3 Zrotation Yrotation Xrotation
				JOINT Neck
				{
					OFFSET 0.000000 0.000000 0.000000
					CHANNELS 3 Zrotation Yrotation Xrotation
					JOINT Neck1
					{
						OFFSET -0.054170 1.746240 0.172020
						CHANNELS 3 Zrotation Yrotation Xrotation
						JOINT Head
						{
							OFFSET 0.104070 1.761360 -0.123970
							CHANNELS 3 Zrotation Yrotation Xrotation
							End Site
							{
								OFFSET 0.000000 0.000000 0.000000
							}
						}
					}
				}
				JOINT LeftShoulder
				{
					OFFSET 0.000000 0.000000 0.000000
					CHANNELS 3 Zrotation Yrotation Xrotation
					JOINT LeftArm
					{
						OFFSET 3.362410 1.200890 -0.311210
						CHANNELS 3 Zrotation Yrotation Xrotation
						JOINT LeftForeArm
						{
							OFFSET 4.983000 -0.000000 -0.000000
							CHANNELS 3 Zrotation Yrotation Xrotation
							JOINT LeftHand
							{
								OFFSET 3.483560 -0.000000 -0.000000
								CHANNELS 3 Zrotation Yrotation Xrotation
								JOINT LeftFingerBase
								{
									OFFSET 0.000000 0.000000 0.000000
									CHANNELS 3 Zrotation Yrotation Xrotation
									JOINT LeftHandIndex1
									{
										OFFSET 0.715260 -0.000000 -0.000000
										CHANNELS 3 Zrotation Yrotation Xrotation
										End Site
										{
											OFFSET 0.000000 0.000000 0.000000
										}
									}
								}
								JOINT LThumb
								{
									OFFSET 0.000000 0.000000 0.000000
									CHANNELS 3 Zrotation Yrotation Xrotation
									End Site
									{
										OFFSET 0.000000 0.000000 0.000000
									}
								}
							}
						}
					}
				}
				JOINT RightShoulder
				{
					OFFSET 0.000000 0.000000 0.000000
					CHANNELS 3 Zrotation Yrotation Xrotation
					JOINT RightArm
					{
						OFFSET -3.136600 1.374050 -0.404650
						CHANNELS 3 Zrotation Yrotation Xrotation
						JOINT RightForeArm
						{
							OFFSET -5.241900 -0.000000 -0.000000
							CHANNELS 3 Zrotation Yrotation Xrotation
							JOINT RightHand
							{
								OFFSET -3.444170 -0.000000 -0.000000
								CHANNELS 3 Zrotation Yrotation Xrotation
								JOINT RightFingerBase
								{
									OFFSET 0.000000 0.000000 0.000000
									CHANNELS 3 Zrotation Yrotation Xrotation
									JOINT RightHandIndex1
									{
										OFFSET -0.622530 -0.000000 -0.000000
										CHANNELS 3 Zrotation Yrotation Xrotation
										End Site
										{
											OFFSET 0.000000 0.000000 0.000000
										}
									}
								}
								JOINT RThumb
								{
									OFFSET 0.000000 0.000000 0.000000
									CHANNELS 3 Zrotation Yrotation Xrotation
									End Site
									{
										OFFSET 0.000000 0.000000 0.000000
									}
								}
							}
						}
					}
				}
			}
		}
	}
}
}
MOTION
Frames: 12
Frame Time: 0.008333
1.747108 17.226633 3.261734 6.024300 26.185346 26.989663 -2.285027 0.257755 -9.225831 -1.104244 0.111981 -4.251403 -5.175111 0.043080 1.828475 9.084488 -9.700225 -5.830841 -2.969390 -0.256062 0.525047 0.000000 0.000000 0.000000 -0.067764 14.048406 -0.405981 -65.763949 15.191097 12.251374 -0.201446 -86.243682 -0.012921 5.283740 0.965811 0.040097 -0.127063 0.162431 -0.000000 0.000000 0.000000 0.000000 0.000000 0.000000 0.000000 11.622262 -3.954537 0.083299 65.784784 25.506577 41.070818 179.669731 88.550580 -179.943218 10.769369 2.648743 0.285594 -0.144937 -0.340283 0.000000 0.000000 0.000000 0.000000 0.000000 0.000000 0.000000 
1.847104 17.160685 3.382755 5.938134 25.413174 26.514032 -2.365819 0.214228 -9.180994 -1.143656 0.076609 -4.249801 -5.304134 0.014404 1.791899 9.360038 -9.862124 -5.786026 -3.007364 -0.259754 0.539030 0.000000 0.000000 0.000000 0.111854 13.989226 -0.440558 -65.723573 15.399684 12.066164 -0.195070 -86.374800 -0.013380 5.522437 0.853960 0.036231 -0.130257 0.162987 -0.000000 0.000000 0.000000 0.000000 0.000000 0.000000 0.000000 11.967096 -4.087726 -0.046195 66.018816 25.105072 39.903136 179.669055 88.498776 -179.942510 10.646193 2.931487 0.310052 -0.143645 -0.350995 0.000000 0.000000 0.000000 0.000000 0.000000 0.000000 0.000000 
1.943387 17.093969 3.506889 5.923966 24.672772 26.084173 -2.526535 0.126272 -9.168641 -1.196783 0.004487 -4.251085 -5.440647 -0.051704 1.765803 9.694293 -10.038474 -5.739305 -3.047847 -0.263656 0.553627 0.000000 0.000000 0.000000 0.281521 13.935824 -0.474616 -65.629137 15.580811 11.865715 -0.189882 -86.495418 -0.013897 5.780302 0.756697 0.032770 -0.133985 0.163330 0.000000 0.000000 0.000000 0.000000 0.000000 0.000000 0.000000 12.389356 -4.257904 -0.183224 66.286592 24.742377 38.731397 179.677960 88.540792 -179.942394 10.375294 3.253031 0.332845 -0.138270 -0.362577 0.000000 0.000000 0.000000 0.000000 0.000000 0.000000 0.000000 
2.035083 17.027977 3.633476 5.972734 23.967509 25.694069 -2.757553 -0.005747 -9.179464 -1.261028 -0.104564 -4.253275 -5.581694 -0.155418 1.750445 10.075127 -10.225305 -5.690629 -3.088493 -0.267555 0.568613 0.000000 0.000000 0.000000 0.429969 13.896674 -0.505966 -65.474402 15.705542 11.658382 -0.186955 -86.582761 -0.014490 6.060387 0.678027 0.030114 -0.138394 0.163463 -0.000000 0.000000 0.000000 0.000000 0.000000 0.000000 0.000000 12.865490 -4.462633 -0.332039 66.613022 24.413169 37.567327 179.698003 88.689586 -179.943049 9.937593 3.596910 0.350175 -0.128511 -0.374482 0.000000 0.000000 0.000000 0.000000 0.000000 0.000000 0.000000 
2.121436 16.964327 3.761689 6.069008 23.295738 25.338740 -3.043083 -0.177582 -9.205642 -1.332925 -0.247513 -4.254744 -5.724156 -0.293634 1.745504 10.486613 -10.418241 -5.639842 -3.126818 -0.271236 0.583788 0.000000 0.000000 0.000000 0.546269 13.878836 -0.532690 -65.255585 15.743326 11.453883 -0.187356 -86.612852 -0.015164 6.362126 0.621556 0.028262 -0.143553 0.163395 -0.000000 0.000000 0.000000 0.000000 0.000000 0.000000 0.000000 13.366672 -4.697535 -0.496563 67.022501 24.106171 36.420517 179.729906 88.951196 -179.944634 9.322202 3.943038 0.357939 -0.114380 -0.386083 0.000000 0.000000 0.000000 0.000000 0.000000 0.000000 0.000000 
2.201927 16.904705 3.890633 6.197058 22.646878 25.018112 -3.366220 -0.381095 -9.243353 -1.409333 -0.417664 -4.254818 -5.865212 -0.459527 1.750050 10.911061 -10.612279 -5.586859 -3.160873 -0.274533 0.598962 0.000000 0.000000 0.000000 0.618966 13.887331 -0.553370 -64.969374 15.665665 11.263325 -0.192050 -86.563716 -0.015915 6.681245 0.588596 0.027714 -0.149433 0.163133 -0.000000 0.000000 0.000000 0.000000 0.000000 0.000000 0.000000 13.864686 -4.955711 -0.679044 67.532020 23.807385 35.297274 179.773219 89.322234 -179.947269 8.526442 4.269913 0.352734 -0.096181 -0.396787 0.000000 0.000000 0.000000 0.000000 0.000000 0.000000 0.000000 
2.276195 16.850774 4.019389 6.344758 22.007774 24.732232 -3.712226 -0.606890 -9.288144 -1.487771 -0.606846 -4.252990 -6.002427 -0.644780 1.762645 11.331140 -10.802455 -5.531721 -3.189370 -0.277336 0.613942 0.000000 0.000000 0.000000 0.638690 13.923712 -0.567016 -64.613756 15.447782 11.097606 -0.201811 -86.417909 -0.016727 7.010854 0.579154 0.028469 -0.155926 0.162687 -0.000000 0.000000 0.000000 0.000000 0.000000 0.000000 0.000000 14.335080 -5.229731 -0.879486 68.148391 23.502487 34.202367 179.826258 89.789106 -179.951023 7.557334 4.557051 0.332151 -0.074513 -0.406088 0.000000 0.000000 0.000000 0.000000 0.000000 0.000000 0.000000 
2.344241 16.804170 4.147035 6.499127 21.364214 24.479051 -4.063687 -0.843947 -9.335054 -1.565425 -0.805625 -4.249204 -6.133946 -0.839791 1.780420 11.730638 -10.985025 -5.474258 -3.212009 -0.279620 0.628691 0.000000 0.000000 0.000000 0.594061 13.980078 -0.573417 -64.187457 15.078651 10.961384 -0.216896 -86.170664 -0.017579 7.341269 0.591235 0.030525 -0.162816 0.162058 -0.000000 0.000000 0.000000 0.000000 0.000000 0.000000 0.000000 14.759219 -5.512696 -1.094247 68.863411 23.180580 33.140018 -0.113911 89.671350 0.044104 6.430717 4.788308 0.295881 -0.050148 -0.413657 0.000000 0.000000 0.000000 0.000000 0.000000 0.000000 0.000000 
2.406177 16.766193 4.272892 6.654898 20.702383 24.254991 -4.412357 -1.082103 -9.377121 -1.641319 -1.004455 -4.242254 -6.258050 -1.034816 1.804251 12.098348 -11.151411 -5.416954 -3.228289 -0.281305 0.642392 0.000000 0.000000 0.000000 0.492794 14.069716 -0.571695 -63.701709 14.522935 10.876042 -0.238304 -85.800688 -0.018438 7.664300 0.618397 0.033781 -0.169994 0.161408 -0.000000 0.000000 0.000000 0.000000 0.000000 0.000000 0.000000 15.123839 -5.792192 -1.320882 69.658183 22.827902 32.107343 -0.050931 89.093289 0.038167 5.172117 4.952255 0.245312 -0.024159 -0.419354 0.000000 0.000000 0.000000 0.000000 0.000000 0.000000 0.000000 
2.462863 16.737818 4.396174 6.791301 20.008852 24.048352 -4.731568 -1.308411 -9.407630 -1.710819 -1.193135 -4.232813 -6.373516 -1.219485 1.828163 12.420920 -11.301729 -5.358452 -3.239182 -0.282502 0.655611 0.000000 0.000000 0.000000 0.320598 14.163372 -0.563340 -63.159604 13.809397 10.828436 -0.264824 -85.337257 -0.019283 7.969474 0.655937 0.037836 -0.177129 0.160731 -0.000000 0.000000 0.000000 0.000000 0.000000 0.000000 0.000000 15.419045 -6.063971 -1.548818 70.497438 22.448000 31.115041 0.011036 88.509420 0.031319 3.814770 5.043739 0.183738 0.002602 -0.423157 0.000000 0.000000 0.000000 0.000000 0.000000 0.000000 0.000000 
2.515214 16.719556 4.516332 6.893066 19.271475 23.846567 -5.002526 -1.511659 -9.419386 -1.770638 -1.362416 -4.220100 -6.478729 -1.384359 1.851957 12.691106 -11.431188 -5.301013 -3.244710 -0.283192 0.667854 0.000000 0.000000 0.000000 0.086211 14.263644 -0.548812 -62.581093 12.931246 10.826768 -0.296276 -84.785026 -0.020096 8.250308 0.695554 0.042089 -0.184105 0.160231 -0.000000 0.000000 0.000000 0.000000 0.000000 0.000000 0.000000 15.638125 -6.317990 -1.771220 71.340716 22.042815 30.167478 0.068122 87.956728 0.023781 2.401209 5.062765 0.115547 0.029086 -0.425182 0.000000 0.000000 0.000000 0.000000 0.000000 0.000000 0.000000 
2.564467 16.711503 4.633039 6.943436 18.480056 23.634837 -5.204576 -1.681691 -9.405559 -1.816957 -1.504437 -4.204539 -6.572416 -1.521503 1.870647 12.903138 -11.537679 -5.243195 -3.245554 -0.283466 0.679800 0.000000 0.000000 0.000000 -0.207752 14.347117 -0.529342 -61.983639 11.925438 10.856863 -0.330926 -84.180440 -0.020859 8.501504 0.730469 0.045940 -0.190720 0.160028 -0.000000 0.000000 0.000000 0.000000 0.000000 0.000000 0.000000 15.777014 -6.546817 -1.978095 72.144404 21.620574 29.276918 0.117217 87.464931 0.015860 0.980919 5.013939 0.046031 0.054411 -0.425623 0.000000 0.000000 0.000000 0.000000 0.000000 0.000000 0.000000 
